<svg width="16" height="14" viewBox="0 0 16 14" fill="none" xmlns="http://www.w3.org/2000/svg">
<path d="M14.4056 5.45587L14.4058 5.45588C14.5085 5.46518 14.596 5.53459 14.6283 5.63396L15.1038 5.47934L14.6282 5.63364C14.6608 5.73399 14.6307 5.84206 14.5526 5.9106L11.4354 8.64393L11.2115 8.84023L11.2775 9.13058L12.1965 13.1783C12.2199 13.2818 12.1798 13.3863 12.096 13.4469L12.0956 13.4472C12.0112 13.5083 11.8995 13.5132 11.8102 13.4598L8.25497 11.3337L7.99837 11.1802L7.74175 11.3336L4.18574 13.4599L4.1856 13.46C4.14438 13.4846 4.09875 13.4967 4.05301 13.4967C3.99939 13.4967 3.94684 13.4804 3.90168 13.4476L3.90069 13.4469C3.81697 13.3863 3.77687 13.2819 3.80019 13.1784C3.8002 13.1784 3.80021 13.1783 3.80022 13.1783L4.71924 9.13058L4.78516 8.84023L4.5613 8.64393L1.44402 5.91052C1.44401 5.91051 1.444 5.9105 1.44398 5.91049C1.3661 5.84216 1.33608 5.73393 1.36818 5.63449C1.40107 5.53483 1.4887 5.46546 1.59144 5.45583C1.59155 5.45582 1.59167 5.45581 1.59179 5.4558L5.71556 5.08148L6.0129 5.05449L6.13017 4.77993L7.75995 0.964299L7.76005 0.96406C7.80101 0.868015 7.89391 0.806641 7.99834 0.806641C8.10242 0.806641 8.19588 0.867778 8.23767 0.964941C8.2377 0.965 8.23772 0.965059 8.23775 0.965118L9.86717 4.77993L9.98444 5.05448L10.2818 5.08148L14.4056 5.45587Z" fill="white" stroke="#F5C34B"/>
</svg>
